<?xml version="1.0" standalone="no"?>
<!DOCTYPE svg PUBLIC "-//W3C//DTD SVG 20010904//EN"
 "http://www.w3.org/TR/2001/REC-SVG-20010904/DTD/svg10.dtd">
<svg version="1.0" xmlns="http://www.w3.org/2000/svg"
 width="435.000000pt" height="435.000000pt" viewBox="0 0 435.000000 435.000000"
 preserveAspectRatio="xMidYMid meet">
<metadata>
Created by potrace 1.14, written by Peter Selinger 2001-2017
</metadata>
<g transform="translate(0.000000,435.000000) scale(0.100000,-0.100000)"
fill="#000000" stroke="none">
<path d="M395 3861 c-3 -5 -2 -12 3 -15 5 -3 9 1 9 9 0 17 -3 19 -12 6z"/>
<path d="M1672 3853 c-5 -13 -18 -18 -45 -18 -20 0 -37 3 -37 8 0 4 5 7 12 7
6 0 8 3 4 7 -4 5 -14 -1 -22 -11 -8 -11 -14 -15 -14 -10 0 5 -16 9 -35 9 -27
0 -34 -4 -30 -15 4 -11 1 -10 -8 2 -8 10 -16 16 -18 14 -10 -10 -69 -14 -63
-4 4 6 1 8 -7 6 -8 -3 -13 -10 -12 -16 2 -6 -9 -5 -25 4 -30 15 -46 18 -39 7
3 -5 -10 -8 -29 -8 -21 0 -34 5 -34 13 0 7 -5 10 -10 7 -6 -4 -7 -11 -4 -17 4
-7 2 -8 -5 -4 -6 4 -19 2 -27 -5 -8 -7 -14 -8 -13 -3 1 5 1 16 0 24 -1 13 -2
13 -11 0 -8 -12 -13 -13 -29 -3 -15 9 -22 10 -27 1 -4 -6 -3 -8 3 -5 5 3 10 0
10 -8 0 -10 -4 -11 -11 -6 -6 5 -26 8 -44 7 -22 -1 -31 2 -28 10 5 13 -19 13
-31 -1 -4 -4 -2 -5 6 0 9 5 12 4 7 -3 -10 -17 -26 -15 -26 4 0 8 -5 12 -10 9
-6 -4 -8 -12 -4 -18 3 -7 -2 -3 -10 7 -14 17 -16 17 -16 4 0 -9 -5 -20 -10
-23 -6 -4 -10 -3 -9 2 3 20 -2 34 -11 28 -6 -4 -8 -11 -5 -16 3 -5 -1 -6 -9
-3 -9 3 -13 10 -10 15 3 5 -2 6 -10 3 -9 -3 -12 -12 -8 -22 5 -14 4 -15 -10
-2 -9 8 -14 18 -11 22 2 4 -3 5 -11 2 -9 -3 -13 -10 -10 -15 3 -5 -2 -6 -10
-3 -9 3 -13 10 -10 15 3 5 -2 6 -10 3 -9 -3 -13 -10 -10 -15 3 -5 -2 -6 -10
-3 -9 3 -14 9 -11 13 2 4 -2 8 -10 8 -8 0 -12 -3 -10 -6 2 -4 -8 -11 -21 -18
-20 -9 -26 -8 -37 7 -13 19 -40 21 -54 5 -4 -4 -2 -5 6 0 9 5 12 4 7 -3 -10
-17 -26 -15 -26 4 0 8 -5 12 -10 9 -6 -4 -8 -11 -5 -16 3 -5 -1 -6 -9 -3 -9 3
-13 11 -10 18 3 6 -2 2 -10 -8 -13 -16 -16 -16 -16 -5 0 20 -38 18 -51 -2 -7
-11 -9 -11 -9 4 0 10 -5 15 -10 12 -6 -4 -7 -12 -3 -18 3 -7 -3 -4 -15 6 -16
15 -24 16 -39 7 -16 -10 -16 -10 5 -5 12 4 22 2 22 -3 0 -8 -17 -9 -53 -3 -5
0 -5 5 -2 11 3 6 -1 7 -9 4 -9 -3 -14 -9 -12 -13 8 -13 -41 -6 -58 8 -14 12
-16 12 -11 -2 4 -8 1 -18 -6 -23 -8 -4 -10 -3 -5 4 7 12 -11 17 -43 13 -8 -2
-10 2 -5 10 4 8 3 10 -4 5 -7 -4 -12 -15 -12 -24 0 -14 -2 -15 -9 -2 -6 8 -7
19 -5 25 3 5 -2 1 -10 -9 -9 -11 -16 -15 -16 -8 0 6 -7 9 -16 5 -10 -3 -14
-13 -11 -25 4 -14 2 -17 -7 -9 -8 7 -12 4 -12 -10 0 -10 4 -19 8 -19 4 0 8 -5
8 -11 0 -5 -5 -7 -11 -3 -8 5 -9 2 -1 -11 6 -11 6 -30 1 -47 -4 -16 -4 -26 0
-24 12 8 4 -84 -9 -99 -8 -10 -8 -15 2 -22 15 -9 17 -45 3 -55 -6 -5 -5 -8 3
-8 6 0 12 -5 12 -11 0 -5 -5 -7 -11 -3 -8 5 -8 1 0 -14 9 -16 7 -24 -7 -38
-16 -17 -16 -18 1 -11 9 3 17 2 17 -3 0 -6 -6 -10 -12 -10 -10 0 -9 -3 1 -9
11 -7 11 -9 0 -14 -10 -4 -10 -6 -1 -6 6 -1 12 -6 12 -12 0 -6 -6 -7 -12 -2
-7 4 -5 -5 5 -20 18 -28 11 -36 -13 -14 -12 10 -12 9 -1 -5 7 -10 10 -18 6
-18 -4 0 -2 -7 5 -15 10 -12 9 -15 -6 -15 -18 -1 -18 -1 -1 -11 12 -7 15 -15
9 -27 -9 -18 -8 -42 3 -84 5 -21 3 -27 -12 -31 -12 -3 -13 -5 -3 -6 19 -1 18
-79 -2 -93 -10 -8 -9 -9 5 -4 19 6 24 -10 5 -17 -10 -4 -10 -6 0 -6 6 -1 12
-6 12 -12 0 -5 -5 -7 -11 -3 -8 4 -8 1 -1 -12 12 -24 8 -70 -6 -67 -7 2 -3
-13 8 -32 18 -32 18 -35 2 -44 -10 -6 -12 -11 -4 -11 6 0 12 -5 12 -11 0 -5
-4 -8 -9 -4 -5 3 -13 0 -17 -6 -4 -8 -3 -9 4 -5 11 7 17 -7 12 -29 -6 -33 -5
-62 3 -72 7 -9 4 -13 -9 -13 -17 0 -17 0 0 -13 18 -13 18 -14 0 -32 -17 -17
-17 -18 -1 -12 9 3 17 2 17 -3 0 -6 -6 -10 -12 -10 -10 0 -10 -2 0 -9 11 -6
10 -12 -5 -26 -14 -15 -15 -18 -2 -13 13 5 15 -2 13 -40 -2 -25 -9 -49 -16
-54 -10 -7 -8 -8 4 -4 10 3 18 1 18 -4 0 -6 -6 -10 -12 -10 -9 0 -8 -4 2 -10
13 -9 7 -14 -12 -11 -4 0 1 -14 11 -32 19 -34 18 -62 -2 -50 -9 5 -9 3 -1 -8
5 -8 9 -25 7 -39 -6 -45 -6 -75 2 -102 5 -21 3 -27 -12 -31 -15 -4 -15 -5 -1
-6 11 -1 15 -7 11 -21 -3 -11 0 -27 7 -35 11 -13 10 -14 -5 -9 -15 6 -16 4 -6
-14 14 -26 14 -32 0 -32 -5 0 -7 5 -3 12 5 7 3 8 -6 3 -10 -6 -10 -11 3 -20 9
-7 14 -15 10 -19 -4 -4 -1 -11 7 -16 13 -9 13 -10 0 -10 -10 0 -15 -11 -16
-30 -1 -17 3 -30 7 -30 5 0 9 -5 9 -11 0 -5 -5 -7 -11 -3 -8 4 -8 1 -1 -13 6
-11 7 -25 2 -33 -5 -8 -5 -21 1 -31 5 -10 5 -36 0 -62 -5 -30 -5 -49 2 -56 8
-8 6 -11 -7 -11 -9 0 -14 -5 -11 -10 4 -6 10 -8 15 -5 5 3 12 0 16 -6 4 -7 3
-10 -2 -6 -15 9 -35 -41 -21 -51 7 -4 12 -22 13 -41 1 -31 0 -33 -12 -16 -8
10 -14 15 -14 9 1 -13 26 -45 32 -39 2 3 5 -1 5 -9 0 -9 -7 -12 -16 -8 -9 3
-13 2 -9 -3 4 -4 3 -16 -3 -26 -7 -15 -6 -21 6 -25 8 -3 15 -10 15 -16 0 -5
-6 -6 -12 -2 -8 5 -7 0 2 -11 14 -17 13 -18 -4 -11 -19 6 -19 6 -3 -11 10 -12
13 -23 7 -32 -4 -8 -4 -24 2 -36 7 -15 7 -29 0 -42 -7 -12 -7 -25 -1 -34 11
-18 12 -32 0 -24 -5 3 -13 0 -17 -6 -4 -7 -3 -9 3 -6 6 4 13 0 17 -8 3 -8 2
-17 -3 -19 -9 -6 -8 -36 2 -53 4 -6 2 -15 -4 -19 -8 -5 -9 -3 -4 6 5 9 4 11
-4 6 -6 -4 -9 -12 -5 -17 3 -5 10 -7 15 -4 16 10 10 -13 -9 -31 -16 -17 -16
-18 1 -11 19 7 24 -8 5 -16 -10 -4 -10 -6 0 -6 19 -1 14 -21 -5 -21 -15 0 -15
-1 2 -13 12 -10 14 -16 7 -21 -7 -4 -12 -13 -12 -19 0 -7 4 -6 10 3 8 13 10
12 10 -2 0 -10 -6 -18 -12 -18 -9 0 -8 -4 2 -10 12 -8 12 -10 1 -10 -11 0 -10
-5 3 -25 15 -22 15 -25 -2 -34 -9 -6 -11 -11 -4 -11 6 0 12 -5 12 -11 0 -5 -5
-7 -11 -3 -8 5 -9 2 -2 -11 6 -9 7 -34 3 -56 -4 -21 -3 -39 1 -39 5 0 9 -5 9
-11 0 -5 -6 -7 -12 -3 -7 4 -4 -3 6 -15 20 -22 20 -22 0 -15 -10 4 -16 4 -12
-1 4 -4 3 -16 -3 -26 -7 -15 -6 -21 6 -25 17 -7 21 -34 4 -34 -5 0 -7 5 -3 12
5 7 3 8 -6 3 -10 -6 -7 -13 11 -27 13 -11 18 -17 12 -13 -8 4 -13 0 -13 -10 0
-10 -5 -13 -12 -9 -7 4 -8 3 -4 -5 4 -6 11 -9 16 -6 5 3 11 1 14 -4 4 -5 1
-13 -5 -17 -8 -4 -9 -3 -5 4 10 17 1 15 -14 -4 -11 -12 -11 -14 -1 -12 16 4
34 -39 20 -48 -6 -3 -1 -14 12 -25 25 -22 37 -25 21 -7 -8 10 -4 13 15 15 19
1 22 -1 12 -8 -10 -6 -6 -9 14 -9 20 0 26 4 21 13 -4 6 2 4 13 -6 16 -14 23
-15 29 -6 5 8 3 10 -6 4 -8 -5 -11 -4 -7 2 6 9 24 10 60 4 5 0 6 -5 3 -9 -2
-4 4 -8 14 -8 10 0 17 3 14 7 -2 4 3 10 12 13 11 4 15 2 11 -8 -4 -10 -1 -13
9 -9 8 3 22 -1 32 -8 16 -13 16 -13 0 7 -16 19 -16 20 2 20 10 0 17 -3 14 -7
-2 -4 3 -10 12 -13 8 -3 12 -2 9 3 -3 5 -1 12 5 16 5 3 10 1 10 -4 0 -6 6 -11
14 -11 8 0 17 -6 19 -13 4 -9 6 -9 6 1 1 7 5 11 10 7 5 -3 12 -1 16 4 3 6 -4
8 -15 6 -11 -2 -18 0 -15 5 3 4 13 7 23 5 9 -2 21 -4 25 -4 5 -1 6 -5 3 -9 -3
-5 1 -9 9 -9 8 0 12 4 9 8 -2 4 0 10 6 14 5 3 10 -1 10 -9 0 -19 16 -21 26 -4
5 7 3 8 -6 3 -9 -5 -11 -4 -6 4 5 8 16 5 39 -11 28 -19 30 -19 15 -2 -16 19
-16 20 2 20 10 0 16 -4 14 -8 -8 -13 11 -9 25 5 11 10 12 7 7 -13 -3 -14 -3
-19 0 -12 7 16 31 16 37 0 4 -10 6 -10 6 0 1 7 5 11 10 7 5 -3 13 0 17 6 5 8
3 9 -6 4 -8 -5 -11 -4 -6 3 4 6 13 9 21 6 8 -4 13 -9 10 -13 -2 -4 2 -8 10 -8
8 0 12 4 9 8 -2 4 0 10 6 14 5 3 10 -1 10 -10 0 -12 4 -14 19 -5 25 13 34 13
26 0 -3 -6 1 -7 9 -4 9 3 13 10 10 16 -3 5 3 4 14 -3 12 -7 18 -17 15 -23 -3
-5 -1 -6 6 -2 6 4 9 11 6 16 -3 5 -1 11 5 15 5 3 10 0 10 -9 0 -11 7 -12 28
-7 19 6 30 3 40 -8 11 -14 11 -14 6 0 -3 10 0 20 7 25 7 4 10 3 6 -3 -4 -6 0
-14 9 -17 8 -3 13 -2 9 3 -8 14 18 19 39 7 14 -8 20 -8 23 2 4 10 9 8 20 -5
13 -16 14 -16 9 -1 -3 12 -1 15 9 11 8 -3 13 -8 10 -12 -2 -4 9 -5 25 -3 17 2
27 9 24 14 -3 5 3 4 14 -3 12 -7 18 -17 15 -23 -3 -5 -1 -6 6 -2 6 4 9 11 6
16 -8 14 18 18 39 6 14 -8 20 -8 23 2 4 10 9 8 20 -5 14 -17 14 -17 8 1 -6 20
-6 20 16 0 12 -10 19 -14 16 -8 -4 7 -1 14 6 16 16 7 38 -2 32 -11 -2 -5 8 -7
23 -5 14 1 32 -2 38 -7 8 -7 14 -6 19 1 3 6 11 7 17 4 7 -4 8 -2 4 5 -4 6 -12
8 -18 5 -7 -4 -8 -2 -4 4 5 8 13 8 32 0 20 -10 27 -9 35 3 7 12 9 12 10 -1 1
-8 1 -19 0 -23 -1 -5 3 -6 9 -2 5 3 10 13 10 21 0 8 5 14 11 14 5 0 7 -4 4
-10 -3 -5 3 -10 14 -10 11 0 22 4 26 10 3 5 12 7 20 4 8 -4 12 -10 9 -15 -3
-5 2 -6 10 -3 9 3 13 11 9 18 -3 6 -1 6 8 -1 16 -15 83 -18 74 -3 -3 6 -1 10
4 10 6 0 11 -7 11 -16 0 -14 2 -14 22 0 12 9 27 16 33 16 5 0 3 -5 -5 -10 -12
-8 -9 -10 12 -10 15 0 29 4 33 10 3 5 12 7 20 4 8 -4 12 -10 9 -15 -3 -5 2 -6
10 -3 9 3 13 11 9 18 -3 6 -1 6 8 -1 15 -15 55 -17 64 -3 3 5 12 7 20 4 8 -4
12 -10 9 -15 -3 -5 2 -6 10 -3 9 3 13 11 9 18 -4 7 -1 6 9 -2 8 -7 24 -9 33
-5 12 4 16 3 11 -5 -9 -15 12 -26 28 -13 7 6 23 9 35 6 18 -3 21 -1 17 12 -5
13 -4 14 9 3 8 -7 12 -17 8 -23 -3 -6 -1 -7 6 -3 6 4 9 11 6 16 -3 5 -1 11 5
15 5 3 10 -2 10 -12 0 -10 4 -14 8 -8 10 15 58 11 54 -4 -1 -7 2 -10 8 -6 5 3
10 13 10 21 0 11 5 10 22 -6 24 -22 34 -25 43 -10 3 6 18 8 32 6 20 -4 24 -2
19 12 -4 10 2 7 16 -8 13 -15 19 -18 15 -8 -3 10 -2 20 3 23 6 4 10 0 10 -8 0
-7 7 -14 15 -14 8 0 12 4 9 9 -3 4 -3 8 0 8 2 0 13 3 23 6 15 5 15 4 3 -5 -12
-9 -10 -11 12 -11 15 0 29 4 33 10 3 5 12 7 20 4 8 -4 12 -10 9 -15 -3 -5 2
-6 10 -3 9 3 13 11 10 16 -4 6 6 2 22 -8 15 -11 25 -14 21 -7 -4 6 -3 14 3 18
5 3 10 -2 11 -12 0 -10 3 -13 5 -7 5 13 41 7 64 -10 13 -9 13 -9 2 5 -10 14
-10 18 4 23 23 9 31 7 14 -4 -12 -8 -10 -10 11 -10 14 0 31 6 38 13 11 10 13
9 8 -5 -4 -13 -2 -15 10 -11 12 5 14 3 8 -8 -5 -8 -1 -7 12 3 20 19 38 24 29
10 -3 -5 1 -9 9 -9 8 0 12 4 10 8 -7 11 20 18 35 9 9 -6 8 -10 -6 -19 -11 -6
-14 -11 -7 -11 6 0 15 5 18 10 3 6 18 8 32 6 19 -4 23 -2 19 11 -5 13 -4 14 9
3 8 -7 12 -17 8 -23 -3 -6 -1 -7 6 -3 6 4 9 11 6 16 -3 4 1 10 8 12 17 6 59
-17 49 -28 -4 -4 0 -3 9 4 9 6 20 8 24 4 5 -4 6 0 3 9 -4 9 -1 16 8 16 8 0 12
-3 9 -5 -3 -3 4 -11 15 -19 21 -15 40 -10 40 10 0 7 -4 6 -10 -3 -8 -13 -11
-13 -22 -1 -8 9 -9 11 -1 7 6 -3 14 -2 18 3 3 6 12 8 20 5 8 -4 12 -10 9 -15
-3 -5 2 -6 10 -3 9 3 13 11 10 16 -4 6 6 2 22 -8 15 -11 25 -14 21 -8 -4 7 -1
14 6 16 17 7 38 -2 32 -12 -3 -5 0 -12 6 -16 7 -4 10 -3 7 2 -3 5 0 15 8 22
14 13 19 5 15 -21 -1 -5 3 -5 9 -2 6 4 9 14 5 23 -4 12 -1 12 16 -4 12 -10 19
-14 16 -7 -10 16 14 22 36 9 13 -8 20 -8 27 4 9 13 10 13 11 0 1 -8 1 -19 0
-23 -1 -5 3 -5 9 -2 6 4 9 13 6 21 -3 8 0 11 9 7 8 -3 13 -9 10 -13 -3 -5 0
-12 6 -16 8 -5 9 -3 5 5 -5 8 -3 12 5 10 27 -3 40 1 34 11 -3 5 0 7 9 4 9 -3
12 -12 8 -22 -5 -14 -4 -15 10 -2 9 8 14 19 11 24 -3 4 7 0 23 -10 15 -11 25
-14 21 -8 -4 7 0 14 8 18 8 3 17 0 21 -5 3 -6 15 -9 25 -6 11 3 19 0 19 -6 0
-7 5 -4 11 6 5 9 15 17 22 17 7 0 6 -4 -3 -10 -12 -8 -10 -10 10 -11 14 0 33
-2 43 -4 12 -2 17 1 13 10 -3 9 0 12 9 8 8 -3 13 -9 10 -13 -3 -5 0 -12 6 -16
8 -4 9 -3 5 4 -4 7 -2 12 4 12 6 0 8 5 4 12 -4 7 -3 8 5 4 6 -4 9 -11 6 -16
-3 -5 0 -12 6 -16 8 -4 9 -3 5 4 -4 7 -2 12 4 12 6 0 8 5 5 10 -3 6 -1 10 4
10 6 0 11 -6 11 -13 0 -8 7 -14 15 -14 8 0 12 4 9 9 -7 11 3 10 28 -3 13 -7
18 -7 14 -1 -3 6 -2 13 4 17 5 3 10 -1 10 -10 0 -9 4 -14 8 -11 5 3 26 6 48 7
21 1 45 7 52 12 16 12 16 -5 0 -22 -7 -8 -1 -6 15 4 15 9 27 19 27 22 0 2 -4
1 -10 -2 -17 -10 -11 7 8 22 9 8 12 12 6 9 -7 -3 -15 1 -18 10 -3 8 -2 13 3
10 18 -11 21 27 4 46 -10 11 -13 19 -8 18 24 -5 27 1 9 16 -13 11 -14 14 -3
11 9 -3 16 1 16 9 0 10 -7 12 -21 8 -15 -4 -17 -3 -7 4 8 6 10 15 6 22 -5 8
-4 11 2 7 6 -4 13 0 17 8 3 8 2 14 -2 14 -19 -3 -25 2 -12 11 13 9 13 11 0 20
-14 9 -7 15 14 11 5 -1 4 5 -3 13 -13 16 -23 86 -12 84 21 -2 22 4 5 18 -16
13 -16 15 -1 10 16 -5 16 -4 1 18 -11 18 -12 26 -3 32 7 4 9 3 5 -4 -3 -6 -2
-13 3 -16 5 -4 8 2 6 11 -2 10 -4 22 -4 26 -1 5 -7 5 -13 1 -7 -4 -10 -4 -6 1
4 4 2 15 -5 24 -10 14 -10 14 4 4 22 -18 33 -3 11 14 -16 14 -16 14 2 9 14 -5
16 -3 9 6 -6 7 -13 29 -16 48 -6 35 -6 35 8 10 17 -30 20 -21 4 14 -7 14 -16
23 -22 19 -6 -3 -7 -1 -3 6 4 6 11 9 16 6 4 -3 11 2 14 11 3 8 2 13 -3 10 -5
-3 -12 1 -15 10 -3 8 -2 13 3 10 5 -3 11 3 14 15 4 15 3 18 -7 9 -10 -8 -12
-5 -8 15 2 15 9 22 16 18 7 -5 7 -2 -1 8 -16 20 -24 69 -11 69 5 0 8 -7 5 -15
-4 -8 -2 -17 2 -19 9 -6 8 21 -2 44 -10 23 -16 79 -9 79 21 -3 24 3 6 17 -18
15 -18 15 0 10 16 -6 17 -4 6 9 -12 15 -22 85 -11 83 21 -2 22 4 5 18 -19 15
-19 16 1 9 16 -5 18 -4 8 6 -17 17 -17 53 -1 43 7 -4 1 8 -12 27 -13 19 -17
28 -9 22 9 -7 19 -10 22 -6 4 3 -1 12 -11 20 -16 14 -16 14 2 9 16 -5 17 -4 7
8 -7 8 -14 30 -16 48 -3 26 -2 29 6 15 6 -9 8 -21 4 -26 -3 -5 -1 -12 4 -15 5
-4 8 4 6 16 -4 37 -16 58 -28 51 -6 -3 -7 -1 -3 6 4 6 11 9 16 6 4 -3 11 2 14
11 3 8 2 13 -3 10 -5 -3 -12 1 -15 10 -3 8 -2 12 3 9 5 -3 12 -1 16 5 3 5 -2
10 -12 10 -17 1 -17 1 0 14 19 15 24 31 6 20 -8 -5 -10 1 -7 20 3 14 2 29 -3
32 -5 2 -5 15 0 27 9 24 4 48 -13 59 -7 5 -7 8 2 8 7 0 10 5 7 10 -3 6 -1 10
5 10 7 0 9 -7 5 -17 -5 -15 -4 -16 6 -5 10 9 10 15 1 24 -14 14 -16 52 -3 44
5 -4 7 3 4 15 -5 16 -8 18 -15 7 -6 -9 -7 -5 -3 11 5 17 4 22 -5 16 -9 -5 -11
-4 -6 4 6 9 11 9 22 0 12 -10 15 -10 12 2 -2 8 -10 19 -18 26 -13 11 -13 12 3
13 9 0 17 5 17 11 0 5 -5 7 -11 3 -8 -5 -10 1 -7 20 4 19 1 29 -9 33 -11 5
-12 8 -2 14 16 9 13 87 -3 107 -10 13 -10 14 0 8 8 -5 12 0 12 14 0 14 4 19
13 14 6 -4 4 2 -6 13 -13 15 -15 22 -6 25 7 2 13 12 15 21 1 9 -2 15 -7 11 -5
-3 -6 -10 -3 -16 4 -7 2 -8 -5 -4 -6 4 -8 12 -5 18 8 12 6 307 -2 319 -8 13
10 11 26 -3 7 -7 4 -1 -7 14 -22 30 -22 90 0 117 8 10 8 13 1 8 -7 -4 -15 0
-18 9 -3 8 -2 12 3 9 5 -3 12 -1 16 5 3 5 -1 10 -9 10 -8 0 -18 4 -21 10 -3 5
0 7 8 4 8 -3 18 0 23 7 4 7 3 10 -4 5 -6 -3 -13 -2 -17 4 -3 5 -1 10 6 10 8 0
7 5 -2 17 -10 11 -10 14 -1 9 15 -9 15 -1 1 26 -6 12 -7 18 -1 14 5 -3 12 1
16 9 6 17 -3 47 -13 41 -4 -3 -7 4 -7 14 0 10 4 16 8 14 11 -7 10 4 -3 28 -6
12 -7 18 -1 14 5 -3 12 1 16 9 6 17 -3 47 -13 41 -4 -3 -7 4 -7 14 0 10 5 16
10 13 5 -4 7 1 3 11 -4 10 -2 26 4 38 8 15 7 24 -7 40 -10 11 -14 19 -9 18 24
-5 27 1 9 15 -12 9 -14 14 -6 15 7 0 11 4 7 9 -8 13 -12 360 -4 355 4 -2 10 3
13 12 3 8 2 13 -3 10 -5 -3 -12 1 -15 10 -3 8 -2 12 4 9 14 -9 12 8 -2 24 -11
11 -10 13 4 8 15 -5 16 -4 5 14 -6 11 -25 23 -40 26 -21 4 -25 8 -15 14 9 6 9
9 1 9 -7 0 -17 -8 -22 -17 -9 -15 -10 -16 -11 -2 0 20 -38 18 -51 -2 -7 -11
-9 -11 -9 4 0 10 -5 15 -10 12 -6 -4 -7 -12 -3 -18 3 -7 -3 -3 -16 7 -17 16
-24 17 -34 7 -9 -10 -8 -11 6 -6 9 4 17 3 17 -2 0 -6 -20 -8 -45 -5 -26 2 -51
-1 -59 -7 -11 -9 -17 -8 -28 6 -14 19 -41 24 -55 9 -5 -5 -2 -6 6 -1 9 5 12 4
7 -3 -10 -17 -26 -15 -26 4 0 8 -5 12 -10 9 -6 -4 -7 -11 -4 -17 5 -7 2 -8 -6
-3 -16 10 -114 10 -130 0 -5 -3 -10 -2 -10 4 0 5 6 11 13 14 6 3 2 4 -9 4 -15
-1 -20 -6 -16 -15 4 -12 1 -12 -16 -3 -24 13 -35 14 -28 3 6 -10 -76 -2 -91
10 -7 6 -14 5 -19 -3 -4 -7 -3 -9 3 -6 5 3 10 0 10 -7 0 -11 -4 -12 -20 -3
-15 10 -21 9 -25 -2 -3 -10 -8 -7 -18 10 -7 13 -13 19 -14 13 0 -7 -15 -12
-34 -12 -19 0 -39 -3 -45 -7 -6 -3 -11 -2 -11 4 0 5 6 11 13 14 6 3 2 4 -9 4
-15 -1 -20 -6 -16 -15 4 -11 1 -12 -14 -4 -10 5 -28 6 -39 2 -11 -4 -34 -4
-51 0 -27 6 -32 5 -27 -9 3 -11 1 -11 -7 3 -10 15 -14 16 -21 5 -6 -9 -9 -10
-9 -2 0 8 -9 9 -30 3 -36 -10 -78 -2 -58 12 10 8 10 9 -2 5 -8 -2 -14 -13 -13
-23 1 -17 0 -17 -10 -3 -9 11 -20 14 -39 8 -27 -7 -40 5 -15 14 6 3 2 4 -9 4
-12 -1 -20 -6 -18 -12 6 -15 -102 -11 -121 5 -13 11 -14 10 -9 -4 8 -21 -4
-21 -28 1 -15 13 -18 14 -13 2 4 -10 -1 -15 -14 -15 -15 0 -17 3 -9 13 15 18
3 16 -16 -3 -15 -14 -16 -14 -16 1 0 9 -5 13 -10 10 -6 -4 -7 -12 -3 -18 3 -7
-4 -3 -16 7 -14 13 -20 15 -16 5 4 -10 -3 -14 -24 -14 -16 -1 -27 3 -24 8 3 5
0 7 -8 5 -8 -3 -13 -11 -11 -17 1 -8 -3 -8 -17 1 -15 9 -23 9 -36 -2 -9 -7
-15 -9 -14 -4 3 20 -2 22 -31 14 -29 -8 -44 3 -17 13 6 3 2 4 -9 4 -12 -1 -20
-6 -17 -12 2 -7 -3 -12 -11 -12 -8 0 -13 4 -11 8 3 4 -2 10 -11 13 -8 3 -13 2
-10 -3 9 -14 -20 -21 -33 -8 -7 7 -11 7 -11 1 0 -6 -21 -10 -50 -8 -34 1 -48
-2 -43 -10 3 -6 -2 -4 -13 5 -19 16 -43 15 -55 -3 -3 -5 -9 -2 -12 7 -5 10 -3
14 5 9 7 -5 8 -3 3 6 -6 10 -11 9 -22 -5 -7 -11 -13 -13 -13 -6 0 7 -4 10 -9
6 -15 -9 -91 -13 -86 -5 3 4 -2 11 -11 14 -8 3 -13 2 -10 -3 3 -5 -1 -11 -9
-15 -9 -3 -15 0 -15 9 0 18 -16 20 -26 3 -4 -7 -3 -8 4 -4 8 5 10 2 6 -8 -5
-14 -8 -14 -21 -1 -19 20 -27 19 -19 -2 5 -13 0 -11 -20 7 -17 16 -25 19 -22
9 4 -10 1 -16 -8 -16 -9 0 -13 7 -9 16 3 11 0 10 -10 -3 -8 -11 -15 -15 -15
-9 0 6 -11 8 -27 5 -22 -4 -25 -2 -20 12 4 10 3 15 -3 11 -6 -3 -10 -13 -10
-22 0 -13 -2 -14 -17 -2 -9 8 -14 10 -11 4 4 -6 -6 -10 -23 -10 -16 0 -29 3
-29 8 0 4 5 7 12 7 6 0 8 3 4 7 -4 5 -14 -1 -22 -11 -8 -11 -14 -14 -14 -7 0
7 -5 9 -10 6 -6 -4 -7 -11 -4 -17 4 -7 2 -8 -5 -4 -6 4 -9 12 -6 17 4 5 -2 6
-11 2 -13 -5 -16 -3 -11 10 9 23 -2 22 -11 0z m-1452 -273 c0 -5 -5 -10 -11
-10 -5 0 -7 5 -4 10 3 6 8 10 11 10 2 0 4 -4 4 -10z m1167 -235 c0 -8 -4 -12
-9 -9 -5 3 -6 10 -3 15 9 13 12 11 12 -6z m39 0 c-4 -12 0 -14 21 -9 15 4 24
3 20 -2 -3 -6 3 -10 13 -10 10 0 16 6 13 12 -2 7 1 15 7 19 6 3 9 1 8 -6 -2
-6 3 -14 11 -17 8 -2 11 0 8 5 -9 14 43 9 72 -7 17 -9 26 -9 35 0 8 8 7 10 -4
5 -9 -3 -24 2 -35 10 -19 16 -19 16 3 5 18 -9 27 -8 40 2 13 11 14 11 7 -1 -6
-11 -4 -13 9 -8 10 4 15 3 11 -3 -3 -6 1 -10 10 -10 10 0 13 5 9 13 -4 6 -4 9
1 5 4 -4 13 -3 20 2 8 7 12 5 12 -5 0 -8 -4 -12 -9 -9 -4 3 -8 1 -8 -5 0 -5 9
-9 19 -8 11 0 17 5 14 10 -8 13 30 4 45 -10 10 -9 19 -10 33 -3 15 9 19 7 19
-5 0 -13 4 -14 23 -4 19 11 21 11 9 -3 -10 -13 -10 -18 -1 -24 8 -4 9 -3 5 4
-4 7 3 11 23 9 24 -2 27 -5 18 -16 -10 -12 -9 -14 6 -8 9 3 17 2 17 -4 0 -6 5
-7 10 -4 6 3 10 1 10 -5 0 -6 5 -8 10 -5 6 3 10 1 10 -4 0 -6 9 -11 19 -11 21
0 35 -25 24 -43 -5 -9 -3 -9 8 0 10 8 19 9 29 1 12 -8 12 -9 -2 -4 -10 3 -18
1 -18 -4 0 -9 21 -14 41 -12 4 1 5 -9 2 -21 -4 -18 -3 -19 6 -7 9 12 11 11 11
-8 0 -16 4 -21 13 -16 9 5 9 4 0 -6 -6 -7 -9 -19 -6 -27 5 -12 7 -12 14 -1 7
10 11 7 15 -9 4 -13 11 -23 18 -24 6 0 2 -4 -9 -9 -11 -5 -14 -9 -7 -9 7 -1
21 -9 30 -18 16 -16 16 -16 0 -10 -10 3 -20 1 -24 -5 -5 -7 -2 -8 6 -3 10 6
12 4 6 -10 -5 -14 -4 -16 8 -6 11 9 15 7 19 -8 4 -15 1 -18 -12 -14 -9 4 -5
-3 9 -16 14 -12 18 -19 10 -15 -8 4 -12 4 -8 -1 4 -4 3 -14 -4 -22 -9 -11 -8
-13 3 -11 9 2 13 -5 12 -19 -2 -13 2 -23 8 -23 5 0 8 4 4 9 -3 5 -2 12 2 14 5
3 9 -11 10 -31 1 -26 -1 -32 -7 -22 -7 11 -9 10 -7 -8 1 -15 6 -21 16 -17 12
5 12 3 0 -11 -15 -18 -22 -47 -9 -39 15 9 18 -23 4 -43 -11 -17 -12 -22 -2
-29 20 -12 18 -52 -1 -45 -9 3 -5 -5 9 -17 17 -16 20 -21 8 -17 -22 7 -23 2
-2 -18 9 -9 11 -16 4 -16 -6 0 -9 -4 -5 -9 3 -5 1 -12 -4 -16 -6 -3 -8 3 -6
15 2 11 0 22 -4 24 -4 3 -8 -1 -9 -9 -1 -8 -3 -22 -4 -31 -1 -15 -3 -14 -15 2
-12 16 -18 10 -15 -17 1 -3 -5 -6 -13 -6 -8 0 -13 5 -12 11 2 11 -20 12 -61 2
-13 -3 -20 -1 -17 5 4 5 10 7 15 4 5 -3 11 -2 14 3 2 4 -11 7 -29 7 -23 0 -31
-3 -24 -11 6 -8 1 -10 -17 -6 -21 4 -25 2 -19 -9 6 -11 4 -10 -11 1 -10 9 -31
15 -46 14 -16 0 -28 4 -29 10 -1 6 -5 0 -9 -14 -5 -14 -8 -18 -9 -9 -1 9 -10
19 -20 22 -14 3 -18 1 -14 -9 3 -8 10 -11 16 -7 6 3 7 1 3 -6 -5 -8 -12 -9
-19 -3 -7 5 -20 8 -30 7 -9 -2 -15 1 -11 6 3 5 11 6 17 3 7 -4 9 -3 4 1 -4 5
-18 9 -31 10 -19 0 -22 -2 -14 -12 8 -10 7 -12 -6 -7 -9 3 -16 11 -16 16 0 5
-10 24 -22 41 -14 20 -16 27 -6 19 11 -9 18 -10 23 -2 3 5 1 10 -6 10 -8 0 -7
5 2 17 8 9 9 14 3 10 -8 -5 -12 4 -12 27 0 19 -3 39 -7 45 -4 7 1 8 12 4 16
-6 16 -5 4 10 -10 12 -10 17 -2 17 8 0 7 6 -3 16 -19 19 -21 35 -3 30 6 -1 9
-1 5 1 -5 3 -8 14 -8 25 0 14 -5 18 -15 15 -11 -5 -12 -1 -5 18 8 21 6 25 -8
26 -11 0 -12 2 -4 6 10 4 10 8 0 21 -10 12 -10 14 -1 8 9 -5 11 -2 7 8 -3 9
-13 12 -22 9 -14 -5 -15 -3 -5 7 17 18 -11 52 -35 43 -11 -5 -13 -3 -7 7 6 10
4 11 -6 4 -20 -12 -40 -14 -33 -3 3 5 10 7 15 4 5 -3 6 1 3 10 -5 12 -10 13
-17 6 -17 -17 -27 -13 -28 12 -1 21 -1 21 -9 -3 -4 -14 -8 -20 -9 -13 -1 12
-31 10 -51 -2 -6 -3 -10 0 -10 7 0 10 -2 10 -9 -1 -5 -8 -16 -11 -27 -7 -18 6
-17 5 0 -9 23 -18 14 -20 -17 -3 -19 10 -20 9 -10 -4 11 -12 9 -14 -10 -14
-13 1 -22 -5 -22 -14 -1 -8 -7 -14 -15 -12 -11 3 -11 1 0 -13 11 -14 11 -16
-1 -13 -8 2 -17 8 -21 13 -5 6 -5 -5 -1 -24 4 -23 3 -32 -4 -28 -6 4 -16 1
-22 -6 -8 -10 -7 -14 4 -14 8 0 11 5 8 11 -3 6 -3 8 1 4 4 -3 8 -10 8 -15 0
-4 5 -14 11 -22 9 -12 9 -13 0 -7 -7 4 -13 2 -13 -3 0 -6 -5 -11 -11 -11 -8 0
-7 6 2 18 12 15 12 16 -2 4 -11 -8 -15 -23 -13 -43 2 -17 -1 -40 -7 -51 -6
-11 -7 -18 -2 -15 5 3 15 2 23 -4 13 -7 13 -9 -1 -9 -11 0 -15 -8 -13 -26 2
-19 -1 -24 -12 -20 -9 3 -12 1 -9 -4 3 -6 14 -10 23 -11 14 0 13 -2 -3 -9 -13
-6 -15 -9 -5 -9 13 -1 13 -2 0 -11 -8 -5 -10 -10 -5 -10 6 0 11 -26 12 -60 0
-38 -3 -58 -9 -54 -6 4 -8 1 -6 -7 3 -8 11 -13 18 -11 11 3 11 0 0 -12 -7 -9
-9 -16 -5 -16 4 0 1 -8 -6 -17 -12 -14 -12 -16 0 -8 11 6 13 4 8 -7 -3 -9 0
-21 6 -27 9 -9 8 -11 -5 -6 -12 5 -16 2 -14 -11 2 -10 8 -20 15 -22 8 -3 6 -9
-6 -19 -10 -8 -12 -12 -6 -8 10 5 11 0 3 -21 -9 -23 -8 -25 7 -20 14 6 14 4
-3 -15 -13 -16 -15 -23 -7 -26 10 -4 10 -10 2 -25 -6 -11 -7 -18 -2 -15 5 4
10 0 10 -8 0 -8 -4 -12 -9 -9 -4 3 -8 0 -8 -5 0 -6 8 -11 18 -12 14 0 14 -2
-3 -9 -13 -6 -15 -9 -5 -9 13 -1 13 -2 0 -11 -10 -6 -11 -10 -2 -10 6 0 12 -5
12 -11 0 -5 -4 -8 -9 -5 -4 3 -7 -8 -5 -24 3 -23 0 -30 -14 -31 -14 0 -14 -2
3 -8 11 -5 23 -7 27 -5 3 2 4 -5 1 -17 -4 -16 -8 -17 -14 -7 -7 10 -9 9 -9 -4
0 -10 5 -18 10 -18 6 0 10 -5 10 -11 0 -5 -4 -8 -9 -5 -5 4 -8 -2 -6 -11 1
-10 -3 -25 -9 -33 -10 -13 -9 -13 8 0 18 14 19 13 14 -1 -4 -9 -2 -21 4 -27 6
-6 6 -12 -3 -17 -8 -5 -10 -4 -5 3 4 7 2 12 -4 12 -6 0 -10 -8 -8 -17 2 -10
10 -17 17 -15 7 1 10 -2 6 -8 -3 -6 -12 -7 -18 -3 -7 4 -5 -2 3 -12 14 -17 13
-18 -5 -12 -18 6 -19 6 -3 -6 14 -11 15 -16 5 -27 -7 -7 -7 -10 -1 -7 6 3 11
-1 11 -9 0 -9 -6 -13 -16 -9 -13 4 -12 2 2 -9 9 -7 17 -16 17 -19 0 -4 -8 -4
-17 -1 -14 5 -15 4 -4 -4 16 -11 25 -62 11 -62 -4 0 -7 -8 -5 -17 1 -10 8 -17
15 -15 6 1 9 -2 5 -8 -3 -6 -11 -8 -16 -5 -5 4 -9 1 -9 -4 0 -6 8 -11 17 -11
15 0 15 -1 -2 -13 -13 -10 -15 -16 -6 -21 6 -4 8 -12 5 -18 -5 -7 -2 -8 7 -4
8 4 5 0 -5 -8 -11 -9 -14 -16 -7 -16 7 0 9 -5 5 -12 -4 -7 -3 -8 5 -4 6 4 8
12 5 18 -4 7 -2 8 5 4 6 -4 9 -12 6 -17 -4 -5 0 -9 7 -9 7 -1 0 -7 -17 -14
-19 -8 -25 -15 -17 -20 7 -4 12 -2 12 3 0 6 5 11 12 11 6 0 8 -3 5 -6 -3 -4
-2 -15 3 -25 7 -12 6 -20 -2 -25 -6 -4 -8 -3 -4 4 3 6 2 13 -3 16 -18 12 -4
-24 17 -44 23 -22 31 -40 9 -22 -10 8 -13 6 -13 -8 0 -10 4 -16 8 -14 4 3 8 0
8 -5 0 -6 6 -11 14 -11 8 0 18 -5 22 -12 5 -7 3 -8 -5 -3 -10 6 -11 3 -2 -14
7 -11 14 -21 17 -21 3 0 2 5 -1 10 -3 6 -1 10 5 10 6 0 10 -8 8 -17 -1 -10 0
-18 3 -18 3 0 13 -6 22 -13 13 -11 17 -10 26 5 10 17 10 17 11 -1 0 -18 1 -18
19 -2 13 12 21 14 26 6 5 -8 11 -7 23 2 12 10 14 10 8 1 -9 -17 6 -17 23 0 11
10 12 8 6 -12 -5 -16 -4 -21 4 -17 6 4 11 14 11 22 0 11 4 12 18 5 12 -6 23
-6 33 0 11 8 10 9 -5 7 -10 -2 -21 2 -23 9 -3 8 3 11 16 8 13 -2 21 1 21 10 0
9 6 12 15 9 11 -5 13 -2 8 12 -3 9 -2 15 3 12 15 -7 57 39 43 48 -8 5 -9 3 -4
-6 6 -9 4 -11 -5 -5 -10 6 -9 11 4 21 10 7 13 15 8 18 -14 8 9 56 23 49 5 -4
7 -3 3 2 -4 4 -2 15 5 23 11 13 9 14 -13 2 -14 -7 -22 -9 -18 -5 4 5 2 15 -5
24 -11 14 -10 15 7 1 18 -14 19 -13 13 4 -7 17 -6 17 10 5 12 -10 15 -10 9 -1
-4 7 -2 19 4 27 9 11 9 15 1 15 -6 0 -11 -4 -11 -10 0 -5 -4 -10 -9 -10 -5 0
-7 9 -4 20 3 11 9 18 13 15 13 -8 19 22 7 34 -8 8 -8 11 1 11 7 0 12 5 12 11
0 5 -4 7 -10 4 -6 -4 -7 1 -3 11 5 13 3 15 -8 9 -8 -5 -6 1 5 13 17 20 17 22
2 28 -15 6 -15 8 1 21 10 8 13 12 7 9 -8 -4 -11 3 -10 18 0 13 4 22 9 19 12
-7 8 8 -7 23 -11 10 -12 22 -5 46 6 23 6 29 -2 21 -8 -8 -17 -6 -32 8 -11 10
-23 17 -26 14 -2 -3 4 -12 15 -20 13 -11 14 -14 4 -13 -8 2 -20 10 -27 18 -9
11 -12 12 -13 2 0 -7 -5 -10 -10 -7 -6 4 -8 10 -5 15 7 11 -22 7 -32 -5 -4 -4
-2 -5 6 0 9 5 12 4 7 -3 -3 -5 0 -13 6 -15 9 -4 10 -6 1 -6 -6 -1 -15 4 -18 9
-5 8 -11 7 -21 -1 -11 -9 -14 -8 -14 5 0 10 5 14 10 11 6 -3 10 -1 10 4 0 15
-6 14 -38 -6 -26 -17 -27 -17 -12 2 9 11 10 16 3 11 -8 -4 -13 -2 -13 4 0 6
-4 8 -10 5 -5 -3 -10 -1 -10 5 0 6 -5 8 -12 4 -9 -5 -8 -2 1 10 11 13 16 14
22 4 5 -8 9 -8 9 -2 0 17 -35 45 -45 37 -5 -5 -3 0 4 10 15 19 26 23 15 5 -4
-7 -3 -8 4 -4 7 4 12 2 12 -5 0 -7 3 -10 6 -6 3 3 -6 21 -20 40 -19 24 -22 34
-11 34 8 0 12 -4 10 -8 -3 -3 2 -12 9 -18 19 -16 16 10 -4 35 -8 10 -10 15 -3
11 6 -4 14 -3 17 2 4 5 2 12 -4 16 -6 4 -8 11 -5 16 4 5 0 9 -8 9 -7 0 -14 7
-14 15 0 11 4 12 14 3 7 -6 16 -8 20 -4 3 3 2 6 -4 6 -6 0 -13 7 -16 14 -4 11
-1 13 11 9 15 -6 15 -5 3 10 -12 15 -12 17 3 11 11 -4 16 -2 14 6 -2 8 8 14
25 15 18 1 26 -2 23 -10 -2 -6 2 -12 10 -12 10 0 12 7 8 21 -4 17 -3 18 5 6 6
-8 11 -11 11 -6 0 5 7 3 15 -4 13 -11 15 -10 9 6 -3 11 -2 15 3 8 4 -5 24 -10
45 -10 20 1 34 -2 31 -6 -2 -5 1 -8 6 -8 6 0 11 5 11 10 0 7 6 7 19 0 14 -7
21 -6 24 3 4 8 6 6 6 -4 1 -12 11 -16 48 -14 26 1 49 7 51 13 2 7 8 9 13 6 6
-3 17 0 25 7 8 7 14 8 13 3 -4 -23 2 -26 17 -8 8 10 13 13 9 7 -3 -7 -1 -13 5
-13 6 0 8 -4 5 -10 -3 -5 -1 -10 4 -10 6 0 11 7 11 16 0 13 3 14 15 4 8 -7 12
-17 8 -23 -3 -6 -1 -7 6 -3 9 6 9 11 -1 24 -11 13 -10 15 5 9 10 -4 17 -2 17
6 0 8 2 9 8 1 4 -6 15 -10 24 -8 10 1 21 -2 24 -7 3 -6 12 -2 20 8 13 16 14
15 9 -12 l-6 -30 15 25 16 25 -4 -27 c-4 -22 -1 -26 12 -21 15 6 15 5 3 -10
-16 -20 -2 -23 19 -4 12 10 12 9 2 -5 -7 -9 -9 -18 -5 -20 4 -3 3 -3 -4 -2 -7
2 -15 -2 -19 -8 -4 -7 -3 -8 4 -4 7 4 12 2 12 -4 0 -6 6 -8 13 -4 7 4 9 3 4
-2 -5 -5 -14 -9 -20 -9 -5 0 -11 -10 -12 -22 -1 -12 2 -20 6 -18 4 3 10 -3 14
-13 14 -30 13 -39 -2 -38 -9 0 -18 -5 -20 -11 -3 -7 0 -13 7 -13 6 0 8 5 4 12
-4 6 -3 8 4 5 5 -4 8 -16 5 -27 -3 -11 0 -26 6 -34 9 -11 9 -16 0 -21 -8 -6
-7 -10 2 -17 12 -8 11 -9 -1 -6 -8 3 -15 16 -15 31 -3 49 -11 38 -11 -13 0
-28 4 -50 9 -50 4 0 6 4 3 8 -3 5 1 9 8 9 11 0 12 -4 3 -17 -5 -10 -7 -26 -3
-36 9 -22 8 -24 -1 -24 -5 0 -8 4 -8 9 0 5 -3 12 -7 16 -3 4 -5 -1 -3 -12 2
-10 4 -24 4 -30 1 -7 4 -12 9 -10 4 1 7 -2 7 -8 0 -5 -8 -9 -17 -9 -10 1 -15
-3 -12 -7 3 -5 10 -7 15 -4 5 4 9 1 9 -5 0 -6 6 -8 13 -4 10 6 10 4 0 -7 -16
-16 -17 -55 -3 -64 6 -4 7 -12 3 -18 -4 -7 -8 -15 -8 -19 0 -3 -3 -9 -6 -13
-4 -3 -5 8 -4 24 1 17 -1 29 -4 26 -4 -2 -6 -21 -5 -42 3 -54 2 -53 21 -46 12
5 11 1 -4 -14 -12 -12 -20 -30 -18 -40 2 -10 4 -21 4 -25 1 -4 9 -5 19 -2 10
4 13 2 7 -3 -12 -9 -13 -42 -2 -60 4 -6 3 -14 -2 -17 -13 -8 -18 4 -16 37 1
15 -1 25 -4 21 -9 -8 -8 -83 1 -78 5 3 8 -2 8 -10 0 -9 6 -16 13 -16 7 0 5 -5
-5 -10 -9 -6 -15 -18 -13 -28 2 -9 4 -25 4 -35 1 -11 6 -15 12 -11 8 4 8 0 0
-15 -9 -16 -9 -21 1 -22 11 0 11 -2 0 -6 -10 -4 -10 -8 0 -21 11 -13 10 -14
-9 -4 -20 11 -21 10 -18 -9 3 -12 12 -31 22 -42 18 -19 17 -20 -4 -8 -27 14
-45 14 -20 0 14 -8 15 -14 6 -30 -6 -11 -8 -27 -5 -34 3 -8 1 -17 -5 -21 -6
-4 -4 -13 6 -24 16 -17 16 -21 1 -42 -9 -12 -16 -18 -16 -13 0 6 -5 3 -10 -5
-6 -9 -10 -10 -10 -3 0 7 9 17 20 23 11 6 20 15 20 21 0 9 -10 3 -46 -30 -14
-12 -17 -12 -25 0 -5 9 -9 10 -9 2 0 -7 -10 -10 -25 -7 -14 2 -25 0 -25 -6 0
-5 5 -10 12 -10 6 0 8 -3 5 -7 -4 -3 -15 2 -26 11 -16 15 -22 15 -40 4 -18
-11 -23 -10 -36 7 -12 16 -14 17 -9 3 6 -17 -6 -24 -31 -18 -5 1 -21 4 -35 7
-37 7 -40 16 -2 10 18 -3 30 -1 26 4 -3 5 -9 7 -13 4 -5 -2 -17 2 -27 10 -19
15 -18 15 1 9 17 -4 16 -3 -3 8 -17 11 -20 16 -10 26 6 6 9 15 5 19 -4 3 -14
-2 -23 -13 -15 -18 -15 -18 -5 3 14 28 14 73 1 73 -5 0 -11 8 -11 18 -1 15 -2
15 -6 -1 -3 -11 -11 -16 -19 -13 -9 3 -12 1 -9 -4 3 -6 1 -10 -6 -10 -8 0 -9
-3 0 -13 14 -18 3 -29 -19 -17 -12 6 -17 5 -17 -5 0 -8 4 -12 9 -9 4 3 5 -2 2
-11 -4 -8 -14 -14 -23 -13 -9 2 -15 -3 -13 -10 2 -9 -5 -12 -20 -8 -13 3 -17
3 -10 0 19 -9 14 -32 -8 -39 -12 -4 -17 -11 -14 -18 5 -8 2 -8 -7 1 -7 6 -17
12 -22 12 -4 0 -5 -6 -1 -12 6 -10 5 -10 -7 -1 -13 10 -19 10 -35 -2 -10 -8
-14 -15 -9 -15 6 0 16 5 23 12 9 9 12 9 12 0 0 -7 -3 -13 -7 -13 -45 -7 -69
-7 -83 1 -12 6 -17 5 -17 -5 0 -8 4 -12 9 -9 4 3 15 1 24 -4 12 -6 8 -9 -15
-9 -17 0 -31 4 -31 8 0 13 -29 18 -36 7 -5 -7 -2 -8 6 -3 9 5 11 4 6 -4 -10
-15 -39 -10 -48 9 -6 13 -7 13 -7 -1 -1 -12 -10 -16 -30 -15 -16 1 -33 5 -38
10 -4 5 -3 6 4 2 6 -3 14 -2 17 3 4 5 -2 8 -11 6 -10 -1 -24 2 -30 8 -17 12
-17 -5 -1 -21 9 -9 9 -12 0 -12 -7 0 -12 5 -12 10 0 6 -7 10 -15 10 -8 0 -15
-5 -15 -12 0 -6 -3 -8 -6 -5 -4 4 -1 13 6 22 15 18 0 20 -19 2 -11 -9 -13 -9
-7 0 5 8 1 13 -9 13 -10 0 -13 -5 -9 -12 4 -7 3 -8 -5 -4 -6 4 -9 10 -7 14 2
4 -3 13 -11 21 -13 12 -14 11 -8 -10 7 -21 6 -22 -9 -10 -13 11 -16 11 -16 1
0 -8 -3 -10 -6 -7 -4 4 -1 13 5 21 10 12 9 14 -8 9 -12 -3 -21 -1 -21 5 0 11
-18 11 -36 0 -7 -5 -10 2 -6 20 4 26 4 27 -13 7 -9 -11 -14 -15 -11 -9 3 7 -1
15 -10 18 -8 3 -13 10 -10 15 3 5 -2 7 -13 4 -10 -3 -22 1 -26 8 -5 7 -4 10 2
6 5 -3 10 0 10 7 0 8 -7 12 -15 8 -10 -3 -13 -1 -8 6 5 8 1 10 -10 5 -12 -4
-15 -3 -10 5 4 7 2 12 -4 12 -6 0 -8 5 -5 10 3 6 -1 10 -10 10 -10 0 -13 -5
-9 -12 4 -7 3 -8 -4 -4 -6 4 -8 14 -5 23 4 11 3 14 -5 9 -8 -5 -10 -1 -5 10 4
12 3 15 -5 10 -7 -4 -12 -1 -12 9 0 10 -5 13 -12 9 -7 -5 -8 -3 -2 7 12 20 14
40 3 33 -5 -3 -6 -11 -2 -17 4 -7 0 -6 -10 2 -18 15 -23 26 -7 16 17 -11 11 7
-7 21 -17 13 -17 14 2 8 18 -5 18 -5 2 6 -10 6 -14 16 -10 23 4 7 -1 6 -10 -2
-16 -13 -17 -12 -8 11 5 14 7 29 4 32 -4 3 0 6 7 6 9 0 7 5 -6 14 -10 8 -19
19 -19 25 0 5 -9 17 -20 25 -19 14 -19 15 -2 21 17 7 17 8 0 22 -10 8 -13 12
-6 8 9 -4 11 6 7 37 -3 24 -6 51 -7 60 -1 9 -5 14 -10 11 -5 -3 -6 -11 -3 -19
3 -7 1 -16 -4 -19 -13 -8 -2 66 13 84 9 12 9 13 0 7 -9 -5 -12 1 -9 23 2 20
-1 28 -9 25 -13 -6 -15 52 -1 74 4 7 2 12 -5 12 -8 0 -8 4 1 15 9 10 9 15 1
15 -6 0 -11 5 -11 11 0 5 4 8 8 5 4 -2 8 9 7 25 0 16 -4 29 -8 29 -5 0 -5 6 0
13 11 18 13 38 2 31 -5 -3 -9 7 -9 23 0 22 2 25 10 13 6 -9 10 -10 10 -3 0 6
-5 15 -10 18 -8 5 -7 11 1 21 9 11 8 14 -2 14 -9 0 -10 3 -4 8 6 4 11 13 13
21 2 11 0 12 -10 3 -11 -8 -14 -7 -14 8 0 10 4 17 7 14 4 -2 10 0 14 6 3 5 1
10 -5 10 -8 0 -8 6 0 20 8 14 8 20 0 20 -8 0 -8 6 0 20 8 14 8 20 0 20 -8 0
-8 6 0 20 8 14 8 20 0 20 -6 0 -8 5 -3 13 11 18 13 38 2 31 -5 -3 -9 7 -9 23
0 22 2 25 10 13 6 -9 10 -10 10 -3 0 6 -5 15 -10 18 -8 5 -7 11 1 21 9 11 8
14 -2 14 -9 0 -10 3 -4 8 6 4 11 13 13 21 3 12 1 12 -14 0 -16 -13 -16 -12 -5
10 16 29 21 71 9 71 -5 0 -6 6 -1 13 11 18 13 38 2 31 -13 -8 -11 10 3 24 10
10 10 15 -1 22 -13 7 -13 11 0 26 8 10 9 15 3 11 -13 -7 -13 58 0 70 5 5 6 2
1 -6 -5 -10 -4 -12 4 -7 8 5 7 13 -4 29 -20 28 -20 47 0 21 15 -19 15 -19 8 1
-3 11 -10 25 -15 31 -11 15 1 46 15 37 5 -3 7 -1 3 5 -3 5 0 13 6 16 8 3 7 5
-2 3 -9 -1 -17 3 -18 8 -1 6 3 10 10 10 6 0 13 6 16 14 3 9 0 11 -9 5 -11 -6
-11 -4 0 10 13 15 13 19 0 28 -11 8 -9 9 7 5 13 -3 21 1 21 9 0 7 -4 11 -9 8
-4 -3 -8 7 -8 21 0 17 4 24 12 19 7 -5 8 -3 2 7 -12 20 -14 40 -3 33 5 -3 9
-1 9 5 0 5 -5 13 -10 16 -6 4 -8 11 -4 16 3 5 10 7 15 3 5 -3 6 -10 3 -16 -4
-7 -2 -8 5 -4 6 4 9 19 7 32 -4 20 -2 23 7 15 9 -7 13 -5 13 9 0 10 -4 16 -9
13 -5 -3 -7 0 -5 8 3 8 10 13 15 12 6 -1 9 9 7 23 -1 16 4 28 17 34 10 6 19
15 19 21 0 6 -4 7 -10 4 -16 -10 -11 1 7 16 11 10 14 10 9 2 -4 -7 -2 -13 3
-13 6 0 11 11 11 23 0 34 10 40 34 20 12 -10 15 -11 9 -3 -16 18 -17 34 -1 24
8 -5 9 0 5 15 -4 18 -3 20 9 10 14 -11 19 -2 15 24 -1 4 9 2 21 -4 20 -11 21
-10 11 3 -16 18 -5 32 13 17 10 -8 12 -6 10 8 -3 16 1 19 26 17 23 -2 28 1 23
13 -4 13 -3 14 10 3 18 -15 20 0 3 20 -7 8 -3 6 9 -3 16 -14 23 -15 29 -6 5 8
3 10 -6 4 -9 -5 -11 -4 -6 4 4 6 12 9 17 6 12 -8 51 4 45 14 -3 4 1 8 9 8 8 0
12 -4 9 -8 -2 -4 0 -10 5 -13 5 -4 13 -2 16 4 5 8 12 7 23 -2 15 -12 16 -11 3
5 -13 16 -12 18 11 13 17 -3 33 2 45 14 22 23 27 24 19 5z m-105 -28 c-10 -9
-11 -8 -5 6 3 10 9 15 12 12 3 -3 0 -11 -7 -18z m489 17 c0 -8 -19 -13 -24 -6
-3 5 1 9 9 9 8 0 15 -2 15 -3z m873 -3 c10 -1 15 -6 12 -11 -4 -6 -11 -7 -17
-4 -7 4 -8 2 -4 -5 5 -8 16 -5 39 11 17 12 28 17 24 11 -4 -6 0 -14 9 -17 12
-4 15 -2 10 9 -8 22 3 19 26 -7 11 -13 16 -17 12 -9 -5 11 -3 13 10 8 9 -4 14
-3 11 2 -3 5 -1 12 5 16 9 6 14 -8 11 -28 -1 -5 3 -6 9 -2 6 3 8 10 6 14 -6
10 68 6 85 -5 9 -5 10 -2 6 9 -3 10 -2 17 3 17 9 0 14 -14 11 -32 0 -5 4 -8
10 -8 6 0 8 9 4 23 -5 19 -4 19 5 5 7 -11 17 -15 28 -11 14 6 15 4 5 -8 -16
-20 8 -54 27 -36 9 9 9 7 -1 -10 -7 -12 -16 -20 -20 -17 -4 2 -6 -4 -5 -13 2
-10 9 -18 17 -18 8 0 13 8 11 20 -2 15 -1 17 7 6 11 -16 -6 -50 -23 -47 -6 2
-8 1 -3 -1 4 -3 4 -10 0 -16 -4 -6 0 -8 10 -4 14 5 15 3 5 -13 -9 -14 -14 -16
-20 -7 -6 9 -8 9 -8 0 0 -20 20 -26 38 -12 14 11 13 10 -1 -8 -11 -12 -16 -27
-11 -34 4 -8 3 -10 -4 -5 -7 4 -12 2 -12 -3 0 -6 5 -11 11 -11 5 0 7 -5 4 -10
-4 -6 -10 -8 -14 -6 -4 3 -8 -1 -8 -9 0 -8 4 -12 9 -9 4 3 9 2 9 -3 6 -36 5
-54 -4 -60 -6 -4 -7 -1 -2 8 5 8 4 10 0 6 -11 -10 -16 -39 -5 -32 16 10 21
-35 9 -85 -2 -8 2 -14 9 -12 8 1 11 -2 7 -7 -3 -6 -13 -8 -23 -5 -15 5 -15 4
-2 -8 18 -16 24 -38 10 -38 -15 0 -12 -30 3 -31 6 0 3 -4 -8 -9 -16 -7 -16 -9
-4 -9 9 -1 20 -8 23 -17 6 -15 4 -15 -10 -3 -16 13 -16 12 -4 -11 12 -22 12
-24 -3 -12 -13 11 -15 10 -10 -7 3 -13 1 -21 -8 -21 -7 0 -9 -3 -6 -6 4 -4 14
-1 24 7 15 12 16 12 10 -3 -3 -10 -2 -20 4 -24 6 -4 6 -11 -2 -20 -6 -8 -8
-14 -4 -14 5 0 0 -10 -11 -21 -14 -16 -16 -23 -6 -26 7 -3 17 -13 22 -23 8
-15 6 -17 -9 -13 -10 3 -22 -1 -26 -8 -6 -8 -4 -10 4 -4 8 4 21 -2 33 -14 l19
-22 -28 6 c-15 3 -22 2 -15 -1 6 -3 9 -11 6 -16 -4 -7 -2 -8 4 -4 8 5 12 0 12
-13 0 -12 -6 -21 -12 -21 -7 -1 -2 -7 12 -15 l25 -15 -30 5 c-16 3 -24 2 -17
-1 6 -3 9 -11 6 -16 -4 -7 -2 -8 4 -4 8 5 12 0 12 -13 0 -12 -5 -21 -11 -21
-5 0 -7 5 -3 12 5 7 3 8 -6 3 -10 -6 -10 -10 3 -20 12 -9 14 -14 5 -23 -16
-16 4 -15 22 1 7 6 3 -3 -10 -22 -20 -28 -21 -33 -7 -28 15 6 16 3 7 -13 -6
-11 -7 -20 -3 -20 4 0 2 -5 -5 -12 -17 -17 -15 -28 6 -28 14 0 15 -2 2 -9 -8
-6 -18 -7 -24 -4 -5 3 -6 1 -2 -6 4 -6 12 -9 17 -6 5 3 6 -1 3 -9 -3 -9 -11
-13 -18 -9 -6 3 -6 1 2 -8 15 -16 16 -33 0 -23 -7 4 -8 3 -4 -5 4 -6 13 -8 19
-4 7 4 5 -2 -3 -12 -12 -15 -12 -17 -1 -10 11 6 13 4 8 -7 -3 -9 0 -21 6 -27
9 -9 8 -11 -5 -6 -11 4 -18 2 -18 -4 0 -6 5 -11 10 -11 6 0 10 -5 10 -11 0 -5
-6 -7 -12 -3 -7 4 -4 -3 7 -16 11 -13 15 -20 9 -17 -7 4 -15 0 -18 -9 -3 -8
-2 -13 3 -10 11 7 20 -38 11 -56 -4 -7 -11 -24 -15 -38 -7 -22 -6 -23 8 -11
15 12 16 9 2 -35 -18 -60 -18 -59 0 -44 20 16 19 6 -1 -14 -8 -9 -11 -16 -5
-16 6 0 11 -5 11 -11 0 -5 -6 -7 -12 -3 -7 4 -4 -3 7 -16 11 -13 14 -20 8 -16
-7 4 -14 4 -14 -1 -6 -37 -5 -53 4 -53 6 0 2 -10 -9 -21 -19 -22 -19 -22 5 -9
13 6 21 7 17 2 -3 -6 -3 -12 1 -15 5 -2 3 -2 -4 -1 -7 2 -15 -1 -18 -6 -4 -6
-1 -10 4 -10 6 0 11 -5 11 -11 0 -5 -6 -7 -12 -4 -7 4 -2 -4 12 -16 17 -15 19
-20 8 -16 -10 4 -19 3 -19 -1 -6 -31 -5 -52 2 -52 5 0 5 -7 2 -17 -4 -10 -2
-14 5 -9 12 7 10 -13 -7 -57 -14 -37 -14 -42 4 -27 12 10 13 7 5 -21 -5 -18
-15 -36 -21 -40 -7 -4 1 -12 19 -20 17 -7 29 -16 27 -19 -2 -3 5 -12 17 -19
11 -7 17 -8 14 -2 -5 7 4 9 24 7 18 -2 37 3 46 11 7 8 14 10 14 4 0 -6 7 -11
16 -11 9 0 12 -5 8 -12 -5 -9 -2 -9 9 1 20 16 23 25 5 15 -7 -4 -9 -3 -5 1 10
12 38 15 31 4 -3 -5 -2 -9 3 -10 4 0 18 -2 31 -3 13 -2 22 3 22 11 0 8 5 11
10 8 6 -4 8 -10 5 -15 -3 -4 3 -7 12 -6 9 2 19 8 21 14 2 8 8 8 17 -2 8 -7 25
-12 39 -11 14 2 29 -1 32 -7 3 -5 17 0 32 14 14 13 22 18 19 12 -4 -7 0 -15 8
-18 19 -7 31 -4 27 8 -2 5 4 6 13 3 8 -4 15 -1 15 5 0 6 3 8 6 5 4 -4 1 -13
-5 -21 -9 -11 -9 -16 0 -22 8 -4 9 -3 5 4 -4 7 -1 12 9 12 10 0 15 -7 13 -17
-2 -10 2 -17 9 -16 7 2 10 -4 7 -12 -4 -8 -10 -15 -16 -15 -5 0 -6 5 -2 12 4
7 3 8 -5 4 -9 -6 -9 -11 -1 -21 7 -8 9 -18 6 -24 -4 -5 1 -17 10 -25 14 -14
14 -16 0 -16 -19 0 -14 -59 6 -71 10 -7 9 -9 -3 -9 -14 0 -15 -7 -9 -40 4 -22
4 -37 -1 -35 -4 3 -12 -2 -17 -11 -6 -11 -17 -15 -31 -11 -11 3 -19 1 -16 -3
3 -5 0 -12 -6 -16 -7 -4 -9 -3 -6 3 4 6 -1 19 -9 29 -9 10 -12 13 -8 5 3 -7 1
-17 -6 -21 -15 -9 -42 -2 -36 9 3 4 -11 7 -30 7 -20 0 -34 -5 -34 -13 0 -6 -9
-11 -19 -10 -11 0 -17 5 -15 9 3 5 10 6 15 3 5 -3 6 1 2 10 -5 13 -7 14 -14 3
-5 -7 -9 -9 -9 -4 0 6 -6 1 -14 -10 -12 -16 -17 -17 -28 -6 -11 11 -10 12 5 7
10 -4 17 -2 17 5 0 6 -4 8 -10 5 -5 -3 -10 0 -10 7 0 8 -3 9 -8 3 -4 -6 -14
-10 -22 -10 -8 0 -22 -7 -30 -15 -8 -9 -12 -11 -7 -6 4 6 7 17 7 25 0 12 -2
12 -12 -1 -13 -16 -29 -22 -56 -19 -7 0 -11 5 -8 9 3 5 -1 9 -9 9 -8 0 -12 -4
-9 -9 3 -4 0 -8 -6 -8 -6 0 -8 -5 -5 -11 4 -6 -2 -5 -14 3 -12 7 -21 17 -21
22 0 6 -6 2 -13 -8 -11 -15 -18 -16 -34 -8 -11 6 -23 9 -25 6 -3 -2 -16 -7
-28 -9 -12 -2 -19 -1 -16 3 4 4 13 7 19 7 5 0 12 7 14 15 3 10 2 11 -4 4 -4
-6 -16 -10 -25 -9 -9 2 -19 -3 -22 -11 -7 -18 -21 -18 -40 2 -9 8 -16 11 -16
6 0 -18 -50 -20 -60 -3 -8 14 -9 14 -10 -1 0 -10 -4 -18 -10 -18 -5 0 -7 8 -4
18 4 13 1 12 -14 -5 -17 -19 -21 -20 -26 -7 -3 8 -2 12 4 9 6 -3 10 -4 10 -1
0 3 -10 10 -21 17 -17 8 -20 8 -14 -1 4 -7 2 -16 -5 -20 -15 -10 -42 -2 -35
10 7 11 -22 6 -32 -5 -5 -4 -1 -5 7 0 9 5 12 5 7 -1 -5 -5 -12 -8 -15 -7 -4 1
-13 -4 -21 -10 -10 -8 -13 -8 -8 -1 3 6 0 20 -8 30 -13 16 -14 17 -9 2 6 -17
-6 -24 -31 -18 -5 1 -18 4 -29 6 -10 2 -21 6 -25 10 -3 4 3 4 14 1 19 -7 19
-7 1 8 -12 9 -19 28 -20 52 -1 21 -5 44 -9 51 -5 7 -2 14 7 18 12 5 13 10 5
25 -6 13 -6 19 1 19 5 0 10 5 10 11 0 5 -3 8 -7 6 -10 -6 -10 49 -1 58 4 4 2
17 -4 28 -8 17 -8 19 5 14 11 -4 14 -2 10 8 -3 8 -9 12 -14 9 -5 -3 -6 2 -3
10 3 8 0 25 -7 38 -11 21 -11 22 4 10 14 -12 16 -11 10 10 -3 12 -5 40 -4 61
0 28 -3 36 -12 31 -9 -6 -9 -4 -1 7 7 8 10 26 8 42 -2 18 1 25 8 21 7 -5 8 -2
3 7 -15 23 -13 49 4 50 9 1 5 5 -9 9 -17 6 -19 8 -7 9 14 1 16 5 7 20 -13 26
-13 34 2 25 7 -5 8 -3 3 7 -15 23 -13 49 4 50 9 1 5 5 -9 9 -17 6 -19 8 -7 9
14 1 16 5 7 20 -14 27 -13 31 8 25 13 -5 14 -4 3 4 -12 8 -14 117 -15 670 -1
582 1 659 14 655 11 -3 11 -1 -2 8 -15 12 -15 14 0 26 13 10 13 12 2 8 -12 -4
-15 4 -14 37 1 24 2 64 3 91 1 44 20 69 22 30 1 -17 2 -17 6 0 5 19 29 23 35
5 3 -7 7 -5 11 6 4 9 3 15 -1 12 -4 -2 -14 -1 -22 4 -8 5 2 7 26 5 21 -2 47
-4 57 -4z m341 -36 c-4 -8 -11 -12 -16 -9 -6 4 -5 10 3 15 19 12 19 11 13 -6z
m1156 -4 c0 -6 -5 -13 -12 -17 -6 -4 -8 -3 -4 4 3 5 0 13 -6 15 -8 3 -6 6 5 6
9 1 17 -3 17 -8z m0 -121 c0 -5 -7 -7 -15 -4 -8 4 -15 8 -15 10 0 2 7 4 15 4
8 0 15 -4 15 -10z m0 -120 c0 -5 -7 -7 -15 -4 -8 4 -15 8 -15 10 0 2 7 4 15 4
8 0 15 -4 15 -10z m-2490 -85 c11 -13 10 -14 -4 -9 -9 3 -16 10 -16 15 0 13 6
11 20 -6z m520 -49 c0 -11 -19 -15 -25 -6 -3 5 1 10 9 10 9 0 16 -2 16 -4z
m-837 -127 c-8 -8 -13 -7 -18 2 -5 8 -4 10 3 5 7 -4 12 -2 12 5 0 7 3 9 7 6 4
-4 2 -12 -4 -18z m1674 5 c-3 -3 -12 -4 -19 -1 -8 3 -5 6 6 6 11 1 17 -2 13
-5z m-1684 -39 c-3 -9 -8 -14 -10 -11 -3 3 -2 9 2 15 9 16 15 13 8 -4z m862
-55 c-3 -5 -12 -10 -18 -10 -7 0 -6 4 3 10 19 12 23 12 15 0z m819 -105 c3 -8
1 -15 -4 -15 -6 0 -10 7 -10 15 0 8 2 15 4 15 2 0 6 -7 10 -15z m-929 -65 c-3
-5 -12 -10 -18 -10 -7 0 -6 4 3 10 19 12 23 12 15 0z m-230 -339 c-6 -5 -25
10 -25 20 0 5 6 4 14 -3 8 -7 12 -15 11 -17z m22 7 c-3 -8 -6 -5 -6 6 -1 11 2
17 5 13 3 -3 4 -12 1 -19z m30 7 c0 -8 -4 -12 -9 -9 -5 3 -6 10 -3 15 9 13 12
11 12 -6z m1105 -32 c-6 -2 -9 -10 -6 -15 4 -7 2 -8 -5 -4 -13 9 -5 26 12 25
9 0 8 -2 -1 -6z m-1474 -76 c8 -10 6 -13 -7 -13 -11 0 -17 6 -14 13 3 7 6 13
8 13 1 0 7 -6 13 -13z m677 -25 c-3 -3 -11 0 -18 7 -9 10 -8 11 6 5 10 -3 15
-9 12 -12z m800 -381 c-6 -5 -25 10 -25 20 0 5 6 4 14 -3 8 -7 12 -15 11 -17z
m-2825 -31 c0 -5 -5 -10 -11 -10 -5 0 -7 5 -4 10 3 6 8 10 11 10 2 0 4 -4 4
-10z m650 -24 c0 -3 -4 -8 -10 -11 -5 -3 -10 -1 -10 4 0 6 5 11 10 11 6 0 10
-2 10 -4z m500 -26 c0 -5 -7 -7 -15 -4 -8 4 -15 8 -15 10 0 2 7 4 15 4 8 0 15
-4 15 -10z m875 -10 c-3 -5 -12 -10 -18 -10 -7 0 -6 4 3 10 19 12 23 12 15 0z
m-14 -63 c-10 -9 -11 -8 -5 6 3 10 9 15 12 12 3 -3 0 -11 -7 -18z m803 7 c3
-8 2 -12 -4 -9 -6 3 -10 10 -10 16 0 14 7 11 14 -7z m-789 -24 c-3 -5 -12 -10
-18 -10 -7 0 -6 4 3 10 19 12 23 12 15 0z m-2025 -15 c0 -8 -4 -15 -10 -15 -5
0 -7 7 -4 15 4 8 8 15 10 15 2 0 4 -7 4 -15z m667 0 c0 -8 -4 -12 -9 -9 -5 3
-6 10 -3 15 9 13 12 11 12 -6z m30 -147 c11 -19 13 -39 2 -32 -5 3 -7 9 -4 14
3 5 -3 13 -12 19 -10 6 -13 11 -6 11 6 0 15 -6 20 -12z m2123 -3 c-10 -12 -10
-15 0 -15 8 0 11 -3 7 -6 -3 -3 -11 -3 -17 1 -8 5 -8 11 1 21 6 8 14 14 16 14
3 0 0 -7 -7 -15z m-794 -31 c1 -9 0 -13 -4 -10 -3 4 -7 14 -8 22 -1 9 0 13 4
10 3 -4 7 -14 8 -22z m-756 -16 c0 -7 -5 -6 -13 1 -8 6 -18 7 -22 3 -5 -4 -5
-2 -1 5 8 14 36 6 36 -9z m1630 6 c0 -8 -19 -13 -24 -6 -3 5 1 9 9 9 8 0 15
-2 15 -3z m322 -3 c8 11 9 11 6 1 -4 -16 -22 -18 -24 -2 -2 7 -1 6 3 -1 4 -8
8 -7 15 2z m62 -7 c3 -8 2 -12 -4 -9 -6 3 -10 10 -10 16 0 14 7 11 14 -7z
m-1263 -111 c13 -16 12 -17 -3 -4 -17 13 -22 21 -14 21 2 0 10 -8 17 -17z m1
-70 c-6 -2 -10 -9 -6 -14 3 -5 0 -9 -5 -9 -12 0 -14 13 -4 23 3 4 11 7 17 6 6
0 5 -3 -2 -6z m-6 -52 c0 -11 -5 -17 -13 -14 -10 4 -11 9 -2 19 15 18 15 18
15 -5z m-166 -91 c0 -5 -5 -10 -11 -10 -5 0 -7 5 -4 10 3 6 8 10 11 10 2 0 4
-4 4 -10z m98 -5 c3 -3 -4 -4 -16 -2 -12 2 -24 6 -28 10 -4 3 4 4 16 2 12 -2
25 -7 28 -10z m1102 5 c0 -5 -5 -10 -11 -10 -5 0 -7 5 -4 10 3 6 8 10 11 10 2
0 4 -4 4 -10z m145 1 c-9 -8 -36 -10 -30 -2 2 4 11 8 20 8 8 0 13 -3 10 -6z
m-3195 -276 c0 -8 -4 -15 -10 -15 -5 0 -7 7 -4 15 4 8 8 15 10 15 2 0 4 -7 4
-15z m3960 -135 c0 -5 -2 -10 -4 -10 -3 0 -8 5 -11 10 -3 6 -1 10 4 10 6 0 11
-4 11 -10z m-2619 -87 c13 -16 12 -17 -3 -4 -17 13 -22 21 -14 21 2 0 10 -8
17 -17z m888 4 c13 5 14 3 3 -8 -10 -11 -15 -10 -27 4 -8 9 -10 13 -4 8 6 -5
19 -7 28 -4z m-234 -7 c-3 -5 -11 -10 -16 -10 -6 0 -7 5 -4 10 3 6 11 10 16
10 6 0 7 -4 4 -10z"/>
<path d="M966 3057 c3 -10 9 -15 12 -12 3 3 0 11 -7 18 -10 9 -11 8 -5 -6z"/>
<path d="M860 2690 c0 -6 7 -10 15 -10 8 0 15 2 15 4 0 2 -7 6 -15 10 -8 3
-15 1 -15 -4z"/>
<path d="M863 2567 c0 -8 6 -14 14 -14 9 0 10 4 2 14 -6 7 -12 13 -14 13 -1 0
-2 -6 -2 -13z"/>
<path d="M1320 2550 c-13 -8 -12 -10 3 -10 9 0 17 5 17 10 0 12 -1 12 -20 0z"/>
<path d="M1325 2471 c-3 -5 -2 -12 3 -15 5 -3 9 1 9 9 0 17 -3 19 -12 6z"/>
<path d="M1606 2188 c3 -4 9 -8 15 -8 5 0 9 4 9 8 0 5 -7 9 -15 9 -8 0 -12 -4
-9 -9z"/>
<path d="M1716 2183 c-6 -14 -5 -15 5 -6 7 7 10 15 7 18 -3 3 -9 -2 -12 -12z"/>
<path d="M2215 2030 c-3 -5 1 -10 10 -10 9 0 13 5 10 10 -3 6 -8 10 -10 10 -2
0 -7 -4 -10 -10z"/>
<path d="M1795 1850 c-3 -5 -1 -10 4 -10 6 0 11 5 11 10 0 6 -2 10 -4 10 -3 0
-8 -4 -11 -10z"/>
<path d="M860 1690 c0 -6 7 -10 15 -10 8 0 15 2 15 4 0 2 -7 6 -15 10 -8 3
-15 1 -15 -4z"/>
<path d="M2210 1370 c0 -5 5 -10 11 -10 5 0 7 5 4 10 -3 6 -8 10 -11 10 -2 0
-4 -4 -4 -10z"/>
<path d="M1535 1299 c-10 -15 3 -25 16 -12 7 7 7 13 1 17 -6 3 -14 1 -17 -5z"/>
<path d="M1570 1290 c0 -5 5 -10 11 -10 5 0 7 5 4 10 -3 6 -8 10 -11 10 -2 0
-4 -4 -4 -10z"/>
<path d="M2210 1283 c5 -2 8 -9 4 -14 -3 -5 0 -9 6 -9 15 0 7 23 -8 26 -7 1
-8 0 -2 -3z"/>
<path d="M1714 1014 c-18 -14 -18 -15 4 -4 12 6 22 13 22 15 0 8 -5 6 -26 -11z"/>
<path d="M2025 1010 c-3 -6 1 -7 9 -4 18 7 21 14 7 14 -6 0 -13 -4 -16 -10z"/>
<path d="M2641 3321 c-8 -5 -9 -11 -3 -15 5 -3 12 1 16 9 6 17 6 18 -13 6z"/>
<path d="M2999 3013 c-13 -16 -12 -17 4 -4 16 13 21 21 13 21 -2 0 -10 -8 -17
-17z"/>
<path d="M2999 2933 c-13 -16 -12 -17 4 -4 16 13 21 21 13 21 -2 0 -10 -8 -17
-17z"/>
<path d="M3006 2903 c-6 -14 -5 -15 5 -6 7 7 10 15 7 18 -3 3 -9 -2 -12 -12z"/>
<path d="M3005 2649 c1 -10 4 -21 8 -24 4 -3 5 -2 2 2 -3 3 0 12 5 18 7 9 6
14 -3 18 -9 3 -13 -2 -12 -14z"/>
<path d="M2998 2463 c7 -3 16 -2 19 1 4 3 -2 6 -13 5 -11 0 -14 -3 -6 -6z"/>
<path d="M3005 2271 c-3 -5 -2 -12 3 -15 5 -3 9 1 9 9 0 17 -3 19 -12 6z"/>
<path d="M2996 2027 c3 -10 9 -15 12 -12 3 3 0 11 -7 18 -10 9 -11 8 -5 -6z"/>
<path d="M3009 1978 c0 -2 -2 -13 -3 -25 -2 -19 0 -21 12 -11 9 8 10 14 3 16
-6 2 -9 8 -5 13 3 5 3 9 0 9 -3 0 -6 -1 -7 -2z"/>
<path d="M2995 1490 c-3 -5 -1 -10 4 -10 6 0 11 5 11 10 0 6 -2 10 -4 10 -3 0
-8 -4 -11 -10z"/>
<path d="M3009 1463 c-13 -16 -12 -17 4 -4 9 7 17 15 17 17 0 8 -8 3 -21 -13z"/>
<path d="M2548 1113 c7 -3 16 -2 19 1 4 3 -2 6 -13 5 -11 0 -14 -3 -6 -6z"/>
<path d="M2875 1000 c-3 -5 -1 -10 4 -10 6 0 11 5 11 10 0 6 -2 10 -4 10 -3 0
-8 -4 -11 -10z"/>
<path d="M2941 1002 c-1 -8 -6 -10 -13 -6 -10 5 -10 4 -1 -6 15 -16 28 -8 20
12 -4 11 -6 11 -6 0z"/>
<path d="M3040 1001 c0 -10 19 -25 25 -20 1 2 -3 10 -11 17 -8 7 -14 8 -14 3z"/>
<path d="M3100 1001 c0 -6 4 -13 10 -16 6 -3 7 1 4 9 -7 18 -14 21 -14 7z"/>
<path d="M745 3851 c-6 -11 9 -23 19 -14 9 9 7 23 -3 23 -6 0 -12 -4 -16 -9z"/>
<path d="M1090 3855 c0 -7 30 -13 34 -7 3 4 -4 9 -15 9 -10 1 -19 0 -19 -2z"/>
<path d="M2096 3848 c3 -4 11 -5 19 -1 21 7 19 12 -4 10 -11 0 -18 -5 -15 -9z"/>
<path d="M2286 3848 c3 -5 10 -6 15 -3 13 9 11 12 -6 12 -8 0 -12 -4 -9 -9z"/>
<path d="M2545 3850 c-3 -6 1 -7 9 -4 18 7 21 14 7 14 -6 0 -13 -4 -16 -10z"/>
<path d="M2890 3856 c0 -2 7 -7 16 -10 8 -3 12 -2 9 4 -6 10 -25 14 -25 6z"/>
<path d="M3065 3850 c-3 -6 1 -7 9 -4 18 7 21 14 7 14 -6 0 -13 -4 -16 -10z"/>
<path d="M3215 3850 c3 -5 8 -10 11 -10 2 0 4 5 4 10 0 6 -5 10 -11 10 -5 0
-7 -4 -4 -10z"/>
<path d="M3425 3850 c-3 -6 1 -7 9 -4 18 7 21 14 7 14 -6 0 -13 -4 -16 -10z"/>
<path d="M3870 3844 c0 -8 5 -12 10 -9 6 3 10 10 10 16 0 5 -4 9 -10 9 -5 0
-10 -7 -10 -16z"/>
<path d="M193 2945 c0 -8 4 -12 9 -9 5 3 6 10 3 15 -9 13 -12 11 -12 -6z"/>
<path d="M197 2849 c7 -7 15 -10 18 -7 3 3 -2 9 -12 12 -14 6 -15 5 -6 -5z"/>
<path d="M4179 2838 c-5 -15 -4 -50 1 -53 3 -2 6 9 6 26 0 24 -3 37 -7 27z"/>
<path d="M197 2369 c7 -7 15 -10 18 -7 3 3 -2 9 -12 12 -14 6 -15 5 -6 -5z"/>
<path d="M4176 2331 c-3 -5 2 -15 12 -22 15 -12 16 -12 5 2 -7 9 -10 19 -6 22
3 4 4 7 0 7 -3 0 -8 -4 -11 -9z"/>
<path d="M196 1837 c3 -10 9 -15 12 -12 3 3 0 11 -7 18 -10 9 -11 8 -5 -6z"/>
<path d="M4175 1450 c2 -27 10 -33 12 -10 1 11 -2 22 -6 24 -4 3 -7 -4 -6 -14z"/>
<path d="M196 1357 c3 -10 9 -15 12 -12 3 3 0 11 -7 18 -10 9 -11 8 -5 -6z"/>
<path d="M4176 1337 c3 -10 9 -15 12 -12 3 3 0 11 -7 18 -10 9 -11 8 -5 -6z"/>
<path d="M197 929 c7 -7 15 -10 18 -7 3 3 -2 9 -12 12 -14 6 -15 5 -6 -5z"/>
<path d="M4175 810 c2 -27 10 -33 12 -10 1 11 -2 22 -6 24 -4 3 -7 -4 -6 -14z"/>
<path d="M198 523 c7 -3 16 -2 19 1 4 3 -2 6 -13 5 -11 0 -14 -3 -6 -6z"/>
<path d="M373 475 c0 -8 4 -12 9 -9 4 3 8 9 8 15 0 5 -4 9 -8 9 -5 0 -9 -7 -9
-15z"/>
<path d="M1720 475 c-7 -9 -8 -15 -2 -15 5 0 12 7 16 15 3 8 4 15 2 15 -2 0
-9 -7 -16 -15z"/>
<path d="M1960 475 c-7 -9 -8 -15 -2 -15 5 0 12 7 16 15 3 8 4 15 2 15 -2 0
-9 -7 -16 -15z"/>
<path d="M2085 479 c-4 -6 -5 -12 -2 -15 2 -3 7 2 10 11 7 17 1 20 -8 4z"/>
</g>
</svg>
