<?xml version="1.0" standalone="no"?>
<!DOCTYPE svg PUBLIC "-//W3C//DTD SVG 20010904//EN"
 "http://www.w3.org/TR/2001/REC-SVG-20010904/DTD/svg10.dtd">
<svg version="1.0" xmlns="http://www.w3.org/2000/svg"
 width="107.000000pt" height="107.000000pt" viewBox="0 0 107.000000 107.000000"
 preserveAspectRatio="xMidYMid meet">
<metadata>
Created by potrace 1.14, written by Peter Selinger 2001-2017
</metadata>
<g transform="translate(0.000000,107.000000) scale(0.100000,-0.100000)"
fill="#000000" stroke="none">
<path d="M68 982 l-58 -3 0 -444 0 -445 525 0 c289 0 525 3 525 8 4 58 1 875
-3 878 -5 6 -898 11 -989 6z m406 -155 c14 -10 34 -34 44 -55 19 -38 30 -131
15 -133 -4 0 -31 -2 -59 -2 l-52 -2 -6 49 c-7 58 -21 78 -55 74 -44 -5 -51
-36 -50 -224 1 -180 7 -211 46 -225 40 -14 65 18 70 89 5 63 5 63 -37 66 -10
1 -16 14 -18 42 l-3 40 80 -1 c44 0 83 -4 88 -8 12 -12 11 -297 -2 -306 -5 -4
-24 -8 -41 -9 -27 -2 -33 2 -38 24 l-7 26 -18 -21 c-31 -36 -77 -44 -149 -26
-35 9 -80 63 -90 109 -12 59 -13 332 -1 389 12 53 62 113 101 119 57 10 156 1
182 -15z m277 13 c1 -3 2 -121 3 -262 1 -141 5 -260 9 -264 4 -4 36 -7 72 -7
l65 1 0 -43 0 -42 -132 1 -133 1 -3 304 c-1 200 1 307 8 311 12 7 109 7 111 0z"/>
</g>
</svg>
